solid pipe_gate
   facet normal -7.832635e-001 -5.002720e-001 -3.690884e-001
      outer loop
         vertex 1.906499e+000 1.624767e+001 7.478673e+000
         vertex 9.602243e-001 1.774767e+001 7.478673e+000
         vertex 1.443946e+000 1.774767e+001 6.464116e+000
      endloop
   endfacet
   facet normal -8.446275e-001 -5.000740e-001 -1.911291e-001
      outer loop
         vertex 2.349708e-001 1.774767e+001 9.842977e+000
         vertex 3.132233e-001 1.774767e+001 9.478672e+000
         vertex 1.203826e+000 1.624767e+001 9.478672e+000
      endloop
   endfacet
   facet normal -8.399723e-001 -5.003014e-001 2.101077e-001
      outer loop
         vertex 1.355297e+000 1.624767e+001 1.552707e+001
         vertex 1.203826e+000 1.624767e+001 1.497867e+001
         vertex 1.028471e+001 0.000000e+000 1.261535e+001
      endloop
   endfacet
   facet normal -8.362895e-001 -5.004017e-001 2.240936e-001
      outer loop
         vertex 1.028471e+001 0.000000e+000 1.261535e+001
         vertex 1.033197e+001 0.000000e+000 1.280403e+001
         vertex 1.355297e+000 1.624767e+001 1.552707e+001
      endloop
   endfacet
   facet normal -8.198490e-001 -5.004017e-001 2.782906e-001
      outer loop
         vertex 1.355297e+000 1.624767e+001 1.552707e+001
         vertex 1.033197e+001 0.000000e+000 1.280403e+001
         vertex 1.039750e+001 0.000000e+000 1.298717e+001
      endloop
   endfacet
   facet normal -8.102975e-001 -5.004017e-001 3.049852e-001
      outer loop
         vertex 1.355297e+000 1.624767e+001 1.552707e+001
         vertex 1.039750e+001 0.000000e+000 1.298717e+001
         vertex 1.730955e+000 1.624767e+001 1.657697e+001
      endloop
   endfacet
   facet normal -7.832635e-001 -5.002720e-001 3.690884e-001
      outer loop
         vertex 1.443946e+000 1.774767e+001 1.799323e+001
         vertex 9.602243e-001 1.774767e+001 1.697867e+001
         vertex 1.906499e+000 1.624767e+001 1.697867e+001
      endloop
   endfacet
   facet normal -7.840104e-001 -5.003059e-001 -3.674531e-001
      outer loop
         vertex 1.730955e+000 1.624767e+001 7.880376e+000
         vertex 1.906499e+000 1.624767e+001 7.478673e+000
         vertex 1.048066e+001 0.000000e+000 1.129434e+001
      endloop
   endfacet
   facet normal -7.886240e-001 -5.004017e-001 -3.573098e-001
      outer loop
         vertex 1.048066e+001 0.000000e+000 1.129434e+001
         vertex 1.039750e+001 0.000000e+000 1.147017e+001
         vertex 1.730955e+000 1.624767e+001 7.880376e+000
      endloop
   endfacet
   facet normal -8.102975e-001 -5.004018e-001 -3.049852e-001
      outer loop
         vertex 1.730955e+000 1.624767e+001 7.880376e+000
         vertex 1.039750e+001 0.000000e+000 1.147017e+001
         vertex 1.033197e+001 0.000000e+000 1.165331e+001
      endloop
   endfacet
   facet normal -8.198490e-001 -5.004017e-001 -2.782906e-001
      outer loop
         vertex 1.730955e+000 1.624767e+001 7.880376e+000
         vertex 1.033197e+001 0.000000e+000 1.165331e+001
         vertex 1.355297e+000 1.624767e+001 8.930269e+000
      endloop
   endfacet
   facet normal -7.957420e-001 -5.000620e-001 3.416615e-001
      outer loop
         vertex 1.730955e+000 1.624767e+001 1.657697e+001
         vertex 1.039750e+001 0.000000e+000 1.298717e+001
         vertex 1.906499e+000 1.624767e+001 1.697867e+001
      endloop
   endfacet
   facet normal -7.840104e-001 -5.003059e-001 3.674531e-001
      outer loop
         vertex 1.906499e+000 1.624767e+001 1.697867e+001
         vertex 1.039750e+001 0.000000e+000 1.298717e+001
         vertex 1.048066e+001 0.000000e+000 1.316300e+001
      endloop
   endfacet
   facet normal -7.716470e-001 -5.001480e-001 3.929540e-001
      outer loop
         vertex 1.906499e+000 1.624767e+001 1.697867e+001
         vertex 1.048066e+001 0.000000e+000 1.316300e+001
         vertex 1.443946e+000 1.774767e+001 1.799323e+001
      endloop
   endfacet
   facet normal -7.498041e-001 -5.004017e-001 4.328879e-001
      outer loop
         vertex 1.443946e+000 1.774767e+001 1.799323e+001
         vertex 1.048066e+001 0.000000e+000 1.316300e+001
         vertex 1.058066e+001 0.000000e+000 1.332984e+001
      endloop
   endfacet
   facet normal -7.352282e-001 -5.004017e-001 4.572062e-001
      outer loop
         vertex 1.443946e+000 1.774767e+001 1.799323e+001
         vertex 1.058066e+001 0.000000e+000 1.332984e+001
         vertex 2.060903e+000 1.774767e+001 1.902256e+001
      endloop
   endfacet
   facet normal -7.037631e-001 -5.004017e-001 5.042970e-001
      outer loop
         vertex 2.060903e+000 1.774767e+001 1.902256e+001
         vertex 1.058066e+001 0.000000e+000 1.332984e+001
         vertex 1.069653e+001 0.000000e+000 1.348607e+001
      endloop
   endfacet
   facet normal -6.868739e-001 -5.004017e-001 5.270696e-001
      outer loop
         vertex 2.060903e+000 1.774767e+001 1.902256e+001
         vertex 1.069653e+001 0.000000e+000 1.348607e+001
         vertex 2.775781e+000 1.774767e+001 1.998646e+001
      endloop
   endfacet
   facet normal -6.509445e-001 -5.004017e-001 5.708495e-001
      outer loop
         vertex 2.775781e+000 1.774767e+001 1.998646e+001
         vertex 1.069653e+001 0.000000e+000 1.348607e+001
         vertex 1.082715e+001 0.000000e+000 1.363019e+001
      endloop
   endfacet
   facet normal -6.319045e-001 -5.004017e-001 5.918570e-001
      outer loop
         vertex 2.775781e+000 1.774767e+001 1.998646e+001
         vertex 1.082715e+001 0.000000e+000 1.363019e+001
         vertex 3.581695e+000 1.774767e+001 2.087565e+001
      endloop
   endfacet
   facet normal -5.918570e-001 -5.004017e-001 6.319045e-001
      outer loop
         vertex 3.581695e+000 1.774767e+001 2.087565e+001
         vertex 1.082715e+001 0.000000e+000 1.363019e+001
         vertex 1.097127e+001 0.000000e+000 1.376082e+001
      endloop
   endfacet
   facet normal -5.708496e-001 -5.004017e-001 6.509445e-001
      outer loop
         vertex 3.581695e+000 1.774767e+001 2.087565e+001
         vertex 1.097127e+001 0.000000e+000 1.376082e+001
         vertex 4.470885e+000 1.774767e+001 2.168156e+001
      endloop
   endfacet
   facet normal -5.270696e-001 -5.004017e-001 6.868739e-001
      outer loop
         vertex 4.470885e+000 1.774767e+001 2.168156e+001
         vertex 1.097127e+001 0.000000e+000 1.376082e+001
         vertex 1.112750e+001 0.000000e+000 1.387669e+001
      endloop
   endfacet
   facet normal -5.042970e-001 -5.004017e-001 7.037631e-001
      outer loop
         vertex 4.470885e+000 1.774767e+001 2.168156e+001
         vertex 1.112750e+001 0.000000e+000 1.387669e+001
         vertex 5.434786e+000 1.774767e+001 2.239644e+001
      endloop
   endfacet
   facet normal -4.572062e-001 -5.004017e-001 7.352283e-001
      outer loop
         vertex 5.434786e+000 1.774767e+001 2.239644e+001
         vertex 1.112750e+001 0.000000e+000 1.387669e+001
         vertex 1.129434e+001 0.000000e+000 1.397668e+001
      endloop
   endfacet
   facet normal -4.328879e-001 -5.004017e-001 7.498041e-001
      outer loop
         vertex 5.434786e+000 1.774767e+001 2.239644e+001
         vertex 1.129434e+001 0.000000e+000 1.397668e+001
         vertex 6.464116e+000 1.774767e+001 2.301340e+001
      endloop
   endfacet
   facet normal -3.829397e-001 -5.004017e-001 7.765019e-001
      outer loop
         vertex 6.464116e+000 1.774767e+001 2.301340e+001
         vertex 1.129434e+001 0.000000e+000 1.397668e+001
         vertex 1.147017e+001 0.000000e+000 1.405985e+001
      endloop
   endfacet
   facet normal -3.573098e-001 -5.004017e-001 7.886240e-001
      outer loop
         vertex 6.464116e+000 1.774767e+001 2.301340e+001
         vertex 1.147017e+001 0.000000e+000 1.405985e+001
         vertex 7.548962e+000 1.774767e+001 2.352649e+001
      endloop
   endfacet
   facet normal -3.049852e-001 -5.004018e-001 8.102975e-001
      outer loop
         vertex 7.548962e+000 1.774767e+001 2.352649e+001
         vertex 1.147017e+001 0.000000e+000 1.405985e+001
         vertex 1.165331e+001 0.000000e+000 1.412538e+001
      endloop
   endfacet
   facet normal -2.782906e-001 -5.004017e-001 8.198490e-001
      outer loop
         vertex 7.548962e+000 1.774767e+001 2.352649e+001
         vertex 1.165331e+001 0.000000e+000 1.412538e+001
         vertex 8.678876e+000 1.774767e+001 2.393078e+001
      endloop
   endfacet
   facet normal -2.240936e-001 -5.004017e-001 8.362895e-001
      outer loop
         vertex 8.678876e+000 1.774767e+001 2.393078e+001
         vertex 1.165331e+001 0.000000e+000 1.412538e+001
         vertex 1.184199e+001 0.000000e+000 1.417264e+001
      endloop
   endfacet
   facet normal -1.965913e-001 -5.004017e-001 8.431785e-001
      outer loop
         vertex 8.678876e+000 1.774767e+001 2.393078e+001
         vertex 1.184199e+001 0.000000e+000 1.417264e+001
         vertex 9.842977e+000 1.774767e+001 2.422237e+001
      endloop
   endfacet
   facet normal -1.410438e-001 -5.004017e-001 8.542275e-001
      outer loop
         vertex 9.842977e+000 1.774767e+001 2.422237e+001
         vertex 1.184199e+001 0.000000e+000 1.417264e+001
         vertex 1.203440e+001 0.000000e+000 1.420118e+001
      endloop
   endfacet
   facet normal -1.129987e-001 -5.004017e-001 8.583876e-001
      outer loop
         vertex 9.842977e+000 1.774767e+001 2.422237e+001
         vertex 1.203440e+001 0.000000e+000 1.420118e+001
         vertex 1.103005e+001 1.774767e+001 2.439846e+001
      endloop
   endfacet
   facet normal -5.663569e-002 -5.004017e-001 8.639389e-001
      outer loop
         vertex 1.103005e+001 1.774767e+001 2.439846e+001
         vertex 1.203440e+001 0.000000e+000 1.420118e+001
         vertex 1.222867e+001 0.000000e+000 1.421072e+001
      endloop
   endfacet
   facet normal -2.831785e-002 -5.004017e-001 8.653301e-001
      outer loop
         vertex 1.103005e+001 1.774767e+001 2.439846e+001
         vertex 1.222867e+001 0.000000e+000 1.421072e+001
         vertex 1.222867e+001 1.774767e+001 2.445734e+001
      endloop
   endfacet
   facet normal -8.327569e-001 -5.001045e-001 -2.375110e-001
      outer loop
         vertex 1.355297e+000 1.624767e+001 8.930269e+000
         vertex 1.033197e+001 0.000000e+000 1.165331e+001
         vertex 1.203826e+000 1.624767e+001 9.478672e+000
      endloop
   endfacet
   facet normal -8.399723e-001 -5.003014e-001 -2.101077e-001
      outer loop
         vertex 1.203826e+000 1.624767e+001 9.478672e+000
         vertex 1.033197e+001 0.000000e+000 1.165331e+001
         vertex 1.028471e+001 0.000000e+000 1.184199e+001
      endloop
   endfacet
   facet normal -8.465130e-001 -5.000964e-001 -1.825361e-001
      outer loop
         vertex 1.203826e+000 1.624767e+001 9.478672e+000
         vertex 1.028471e+001 0.000000e+000 1.184199e+001
         vertex 2.349708e-001 1.774767e+001 9.842977e+000
      endloop
   endfacet
   facet normal -8.542275e-001 -5.004018e-001 -1.410438e-001
      outer loop
         vertex 2.349708e-001 1.774767e+001 9.842977e+000
         vertex 1.028471e+001 0.000000e+000 1.184199e+001
         vertex 1.025617e+001 0.000000e+000 1.203440e+001
      endloop
   endfacet
   facet normal -8.583876e-001 -5.004017e-001 -1.129987e-001
      outer loop
         vertex 2.349708e-001 1.774767e+001 9.842977e+000
         vertex 1.025617e+001 0.000000e+000 1.203440e+001
         vertex 5.888473e-002 1.774767e+001 1.103005e+001
      endloop
   endfacet
   facet normal -8.639389e-001 -5.004017e-001 -5.663570e-002
      outer loop
         vertex 5.888473e-002 1.774767e+001 1.103005e+001
         vertex 1.025617e+001 0.000000e+000 1.203440e+001
         vertex 1.024662e+001 0.000000e+000 1.222867e+001
      endloop
   endfacet
   facet normal -8.653301e-001 -5.004017e-001 -2.831785e-002
      outer loop
         vertex 5.888473e-002 1.774767e+001 1.103005e+001
         vertex 1.024662e+001 0.000000e+000 1.222867e+001
         vertex 0.000000e+000 1.774767e+001 1.222867e+001
      endloop
   endfacet
   facet normal -8.653301e-001 -5.004018e-001 2.831785e-002
      outer loop
         vertex 0.000000e+000 1.774767e+001 1.222867e+001
         vertex 1.024662e+001 0.000000e+000 1.222867e+001
         vertex 1.025617e+001 0.000000e+000 1.242295e+001
      endloop
   endfacet
   facet normal -8.639389e-001 -5.004017e-001 5.663570e-002
      outer loop
         vertex 0.000000e+000 1.774767e+001 1.222867e+001
         vertex 1.025617e+001 0.000000e+000 1.242295e+001
         vertex 5.888473e-002 1.774767e+001 1.342729e+001
      endloop
   endfacet
   facet normal -8.583876e-001 -5.004017e-001 1.129987e-001
      outer loop
         vertex 5.888473e-002 1.774767e+001 1.342729e+001
         vertex 1.025617e+001 0.000000e+000 1.242295e+001
         vertex 1.028471e+001 0.000000e+000 1.261535e+001
      endloop
   endfacet
   facet normal -8.542276e-001 -5.004017e-001 1.410438e-001
      outer loop
         vertex 5.888473e-002 1.774767e+001 1.342729e+001
         vertex 1.028471e+001 0.000000e+000 1.261535e+001
         vertex 2.349708e-001 1.774767e+001 1.461437e+001
      endloop
   endfacet
   facet normal -8.465129e-001 -5.000964e-001 1.825361e-001
      outer loop
         vertex 2.349708e-001 1.774767e+001 1.461437e+001
         vertex 1.028471e+001 0.000000e+000 1.261535e+001
         vertex 1.203826e+000 1.624767e+001 1.497867e+001
      endloop
   endfacet
   facet normal -8.446275e-001 -5.000740e-001 1.911291e-001
      outer loop
         vertex 2.349708e-001 1.774767e+001 1.461437e+001
         vertex 1.203826e+000 1.624767e+001 1.497867e+001
         vertex 3.132233e-001 1.774767e+001 1.497867e+001
      endloop
   endfacet
   facet normal -7.716470e-001 -5.001480e-001 -3.929540e-001
      outer loop
         vertex 1.906499e+000 1.624767e+001 7.478673e+000
         vertex 1.443946e+000 1.774767e+001 6.464116e+000
         vertex 1.048066e+001 0.000000e+000 1.129434e+001
      endloop
   endfacet
   facet normal -7.498041e-001 -5.004017e-001 -4.328879e-001
      outer loop
         vertex 1.048066e+001 0.000000e+000 1.129434e+001
         vertex 1.443946e+000 1.774767e+001 6.464116e+000
         vertex 2.060903e+000 1.774767e+001 5.434786e+000
      endloop
   endfacet
   facet normal -7.352282e-001 -5.004017e-001 -4.572062e-001
      outer loop
         vertex 1.048066e+001 0.000000e+000 1.129434e+001
         vertex 2.060903e+000 1.774767e+001 5.434786e+000
         vertex 1.058066e+001 0.000000e+000 1.112750e+001
      endloop
   endfacet
   facet normal -7.037631e-001 -5.004017e-001 -5.042970e-001
      outer loop
         vertex 1.058066e+001 0.000000e+000 1.112750e+001
         vertex 2.060903e+000 1.774767e+001 5.434786e+000
         vertex 2.775781e+000 1.774767e+001 4.470885e+000
      endloop
   endfacet
   facet normal -6.868739e-001 -5.004017e-001 -5.270696e-001
      outer loop
         vertex 1.058066e+001 0.000000e+000 1.112750e+001
         vertex 2.775781e+000 1.774767e+001 4.470885e+000
         vertex 1.069653e+001 0.000000e+000 1.097127e+001
      endloop
   endfacet
   facet normal -6.509445e-001 -5.004017e-001 -5.708495e-001
      outer loop
         vertex 1.069653e+001 0.000000e+000 1.097127e+001
         vertex 2.775781e+000 1.774767e+001 4.470885e+000
         vertex 3.581695e+000 1.774767e+001 3.581695e+000
      endloop
   endfacet
   facet normal -6.319045e-001 -5.004017e-001 -5.918570e-001
      outer loop
         vertex 1.069653e+001 0.000000e+000 1.097127e+001
         vertex 3.581695e+000 1.774767e+001 3.581695e+000
         vertex 1.082715e+001 0.000000e+000 1.082715e+001
      endloop
   endfacet
   facet normal -5.918570e-001 -5.004017e-001 -6.319045e-001
      outer loop
         vertex 1.082715e+001 0.000000e+000 1.082715e+001
         vertex 3.581695e+000 1.774767e+001 3.581695e+000
         vertex 4.470885e+000 1.774767e+001 2.775781e+000
      endloop
   endfacet
   facet normal -5.708496e-001 -5.004017e-001 -6.509445e-001
      outer loop
         vertex 1.082715e+001 0.000000e+000 1.082715e+001
         vertex 4.470885e+000 1.774767e+001 2.775781e+000
         vertex 1.097127e+001 0.000000e+000 1.069653e+001
      endloop
   endfacet
   facet normal -5.270696e-001 -5.004017e-001 -6.868739e-001
      outer loop
         vertex 1.097127e+001 0.000000e+000 1.069653e+001
         vertex 4.470885e+000 1.774767e+001 2.775781e+000
         vertex 5.434786e+000 1.774767e+001 2.060903e+000
      endloop
   endfacet
   facet normal -5.042970e-001 -5.004017e-001 -7.037631e-001
      outer loop
         vertex 1.097127e+001 0.000000e+000 1.069653e+001
         vertex 5.434786e+000 1.774767e+001 2.060903e+000
         vertex 1.112750e+001 0.000000e+000 1.058066e+001
      endloop
   endfacet
   facet normal -4.572062e-001 -5.004017e-001 -7.352283e-001
      outer loop
         vertex 1.112750e+001 0.000000e+000 1.058066e+001
         vertex 5.434786e+000 1.774767e+001 2.060903e+000
         vertex 6.464116e+000 1.774767e+001 1.443946e+000
      endloop
   endfacet
   facet normal -4.328879e-001 -5.004017e-001 -7.498041e-001
      outer loop
         vertex 1.112750e+001 0.000000e+000 1.058066e+001
         vertex 6.464116e+000 1.774767e+001 1.443946e+000
         vertex 1.129434e+001 0.000000e+000 1.048066e+001
      endloop
   endfacet
   facet normal -3.829397e-001 -5.004017e-001 -7.765019e-001
      outer loop
         vertex 1.129434e+001 0.000000e+000 1.048066e+001
         vertex 6.464116e+000 1.774767e+001 1.443946e+000
         vertex 7.548962e+000 1.774767e+001 9.308522e-001
      endloop
   endfacet
   facet normal -3.573098e-001 -5.004017e-001 -7.886240e-001
      outer loop
         vertex 1.129434e+001 0.000000e+000 1.048066e+001
         vertex 7.548962e+000 1.774767e+001 9.308522e-001
         vertex 1.147017e+001 0.000000e+000 1.039750e+001
      endloop
   endfacet
   facet normal -3.049852e-001 -5.004018e-001 -8.102975e-001
      outer loop
         vertex 1.147017e+001 0.000000e+000 1.039750e+001
         vertex 7.548962e+000 1.774767e+001 9.308522e-001
         vertex 8.678876e+000 1.774767e+001 5.265623e-001
      endloop
   endfacet
   facet normal -2.782906e-001 -5.004017e-001 -8.198490e-001
      outer loop
         vertex 1.147017e+001 0.000000e+000 1.039750e+001
         vertex 8.678876e+000 1.774767e+001 5.265623e-001
         vertex 1.165331e+001 0.000000e+000 1.033197e+001
      endloop
   endfacet
   facet normal -2.240936e-001 -5.004017e-001 -8.362895e-001
      outer loop
         vertex 1.165331e+001 0.000000e+000 1.033197e+001
         vertex 8.678876e+000 1.774767e+001 5.265623e-001
         vertex 9.842977e+000 1.774767e+001 2.349708e-001
      endloop
   endfacet
   facet normal -1.965913e-001 -5.004017e-001 -8.431785e-001
      outer loop
         vertex 1.165331e+001 0.000000e+000 1.033197e+001
         vertex 9.842977e+000 1.774767e+001 2.349708e-001
         vertex 1.184199e+001 0.000000e+000 1.028471e+001
      endloop
   endfacet
   facet normal -1.410438e-001 -5.004017e-001 -8.542275e-001
      outer loop
         vertex 1.184199e+001 0.000000e+000 1.028471e+001
         vertex 9.842977e+000 1.774767e+001 2.349708e-001
         vertex 1.103005e+001 1.774767e+001 5.888473e-002
      endloop
   endfacet
   facet normal -1.129987e-001 -5.004017e-001 -8.583876e-001
      outer loop
         vertex 1.184199e+001 0.000000e+000 1.028471e+001
         vertex 1.103005e+001 1.774767e+001 5.888473e-002
         vertex 1.203440e+001 0.000000e+000 1.025617e+001
      endloop
   endfacet
   facet normal -5.663569e-002 -5.004017e-001 -8.639389e-001
      outer loop
         vertex 1.203440e+001 0.000000e+000 1.025617e+001
         vertex 1.103005e+001 1.774767e+001 5.888473e-002
         vertex 1.222867e+001 1.774767e+001 0.000000e+000
      endloop
   endfacet
   facet normal -2.831785e-002 -5.004017e-001 -8.653301e-001
      outer loop
         vertex 1.203440e+001 0.000000e+000 1.025617e+001
         vertex 1.222867e+001 1.774767e+001 0.000000e+000
         vertex 1.222867e+001 0.000000e+000 1.024662e+001
      endloop
   endfacet
   facet normal 8.379680e-001 5.002108e-001 2.181713e-001
      outer loop
         vertex 2.999053e+000 1.624767e+001 9.478672e+000
         vertex 2.098689e+000 1.774767e+001 9.478672e+000
         vertex 1.961427e+000 1.774767e+001 1.004630e+001
      endloop
   endfacet
   facet normal 7.587077e-001 5.001065e-001 -4.174399e-001
      outer loop
         vertex 3.850971e+000 1.624767e+001 1.697867e+001
         vertex 2.868300e+000 1.774767e+001 1.697867e+001
         vertex 3.138332e+000 1.774767e+001 1.747698e+001
      endloop
   endfacet
   facet normal 8.341944e-001 5.003750e-001 -2.318289e-001
      outer loop
         vertex 1.198414e+001 0.000000e+000 1.228065e+001
         vertex 2.999053e+000 1.624767e+001 1.497867e+001
         vertex 1.199091e+001 0.000000e+000 1.230593e+001
      endloop
   endfacet
   facet normal 8.257903e-001 5.000252e-001 -2.608549e-001
      outer loop
         vertex 1.199091e+001 0.000000e+000 1.230593e+001
         vertex 2.999053e+000 1.624767e+001 1.497867e+001
         vertex 3.069432e+000 1.624767e+001 1.520469e+001
      endloop
   endfacet
   facet normal 8.135538e-001 5.004572e-001 -2.960963e-001
      outer loop
         vertex 1.199091e+001 0.000000e+000 1.230593e+001
         vertex 3.069432e+000 1.624767e+001 1.520469e+001
         vertex 1.200029e+001 0.000000e+000 1.233036e+001
      endloop
   endfacet
   facet normal 8.027153e-001 5.004571e-001 -3.243313e-001
      outer loop
         vertex 1.200029e+001 0.000000e+000 1.233036e+001
         vertex 3.069432e+000 1.624767e+001 1.520469e+001
         vertex 3.430685e+000 1.624767e+001 1.614579e+001
      endloop
   endfacet
   facet normal 7.781465e-001 5.004572e-001 -3.795137e-001
      outer loop
         vertex 1.200029e+001 0.000000e+000 1.233036e+001
         vertex 3.430685e+000 1.624767e+001 1.614579e+001
         vertex 1.201217e+001 0.000000e+000 1.235367e+001
      endloop
   endfacet
   facet normal 7.654887e-001 5.004256e-001 4.044766e-001
      outer loop
         vertex 1.201217e+001 0.000000e+000 1.210367e+001
         vertex 3.850971e+000 1.624767e+001 7.478673e+000
         vertex 1.200029e+001 0.000000e+000 1.212699e+001
      endloop
   endfacet
   facet normal 7.791651e-001 5.003915e-001 3.775051e-001
      outer loop
         vertex 1.200029e+001 0.000000e+000 1.212699e+001
         vertex 3.850971e+000 1.624767e+001 7.478673e+000
         vertex 3.430685e+000 1.624767e+001 8.311557e+000
      endloop
   endfacet
   facet normal 8.027153e-001 5.004571e-001 3.243313e-001
      outer loop
         vertex 1.200029e+001 0.000000e+000 1.212699e+001
         vertex 3.430685e+000 1.624767e+001 8.311557e+000
         vertex 1.199091e+001 0.000000e+000 1.215142e+001
      endloop
   endfacet
   facet normal 8.135538e-001 5.004572e-001 2.960963e-001
      outer loop
         vertex 1.199091e+001 0.000000e+000 1.215142e+001
         vertex 3.430685e+000 1.624767e+001 8.311557e+000
         vertex 3.069432e+000 1.624767e+001 9.252654e+000
      endloop
   endfacet
   facet normal 8.322198e-001 5.004572e-001 2.386480e-001
      outer loop
         vertex 1.199091e+001 0.000000e+000 1.215142e+001
         vertex 3.069432e+000 1.624767e+001 9.252654e+000
         vertex 1.198414e+001 0.000000e+000 1.217669e+001
      endloop
   endfacet
   facet normal 7.654887e-001 5.004256e-001 -4.044766e-001
      outer loop
         vertex 3.430685e+000 1.624767e+001 1.614579e+001
         vertex 3.850971e+000 1.624767e+001 1.697867e+001
         vertex 1.201217e+001 0.000000e+000 1.235367e+001
      endloop
   endfacet
   facet normal 7.511237e-001 5.000026e-001 -4.310576e-001
      outer loop
         vertex 1.201217e+001 0.000000e+000 1.235367e+001
         vertex 3.850971e+000 1.624767e+001 1.697867e+001
         vertex 3.138332e+000 1.774767e+001 1.747698e+001
      endloop
   endfacet
   facet normal 7.342138e-001 5.004572e-001 -4.587732e-001
      outer loop
         vertex 1.201217e+001 0.000000e+000 1.235367e+001
         vertex 3.138332e+000 1.774767e+001 1.747698e+001
         vertex 1.202642e+001 0.000000e+000 1.237562e+001
      endloop
   endfacet
   facet normal 7.177417e-001 5.004572e-001 -4.841377e-001
      outer loop
         vertex 1.202642e+001 0.000000e+000 1.237562e+001
         vertex 3.138332e+000 1.774767e+001 1.747698e+001
         vertex 3.736727e+000 1.774767e+001 1.839843e+001
      endloop
   endfacet
   facet normal 6.822368e-001 5.004572e-001 -5.330062e-001
      outer loop
         vertex 1.202642e+001 0.000000e+000 1.237562e+001
         vertex 3.736727e+000 1.774767e+001 1.839843e+001
         vertex 1.204289e+001 0.000000e+000 1.239596e+001
      endloop
   endfacet
   facet normal 6.632038e-001 5.004572e-001 -5.565101e-001
      outer loop
         vertex 1.204289e+001 0.000000e+000 1.239596e+001
         vertex 3.736727e+000 1.774767e+001 1.839843e+001
         vertex 4.428162e+000 1.774767e+001 1.925228e+001
      endloop
   endfacet
   facet normal 6.227851e-001 5.004572e-001 -6.013995e-001
      outer loop
         vertex 1.204289e+001 0.000000e+000 1.239596e+001
         vertex 4.428162e+000 1.774767e+001 1.925228e+001
         vertex 1.206139e+001 0.000000e+000 1.241446e+001
      endloop
   endfacet
   facet normal 6.013995e-001 5.004572e-001 -6.227851e-001
      outer loop
         vertex 1.206139e+001 0.000000e+000 1.241446e+001
         vertex 4.428162e+000 1.774767e+001 1.925228e+001
         vertex 5.205062e+000 1.774767e+001 2.002918e+001
      endloop
   endfacet
   facet normal 5.565101e-001 5.004572e-001 -6.632038e-001
      outer loop
         vertex 1.206139e+001 0.000000e+000 1.241446e+001
         vertex 5.205062e+000 1.774767e+001 2.002918e+001
         vertex 1.208173e+001 0.000000e+000 1.243093e+001
      endloop
   endfacet
   facet normal 5.330062e-001 5.004572e-001 -6.822368e-001
      outer loop
         vertex 1.208173e+001 0.000000e+000 1.243093e+001
         vertex 5.205062e+000 1.774767e+001 2.002918e+001
         vertex 6.058913e+000 1.774767e+001 2.072062e+001
      endloop
   endfacet
   facet normal 4.841378e-001 5.004572e-001 -7.177417e-001
      outer loop
         vertex 1.208173e+001 0.000000e+000 1.243093e+001
         vertex 6.058913e+000 1.774767e+001 2.072062e+001
         vertex 1.210367e+001 0.000000e+000 1.244518e+001
      endloop
   endfacet
   facet normal 4.587732e-001 5.004572e-001 -7.342138e-001
      outer loop
         vertex 1.210367e+001 0.000000e+000 1.244518e+001
         vertex 6.058913e+000 1.774767e+001 2.072062e+001
         vertex 6.980361e+000 1.774767e+001 2.131901e+001
      endloop
   endfacet
   facet normal 4.064611e-001 5.004572e-001 -7.644161e-001
      outer loop
         vertex 1.210367e+001 0.000000e+000 1.244518e+001
         vertex 6.980361e+000 1.774767e+001 2.131901e+001
         vertex 1.212699e+001 0.000000e+000 1.245706e+001
      endloop
   endfacet
   facet normal 3.795137e-001 5.004572e-001 -7.781465e-001
      outer loop
         vertex 1.212699e+001 0.000000e+000 1.245706e+001
         vertex 6.980361e+000 1.774767e+001 2.131901e+001
         vertex 7.959312e+000 1.774767e+001 2.181781e+001
      endloop
   endfacet
   facet normal 3.243313e-001 5.004571e-001 -8.027153e-001
      outer loop
         vertex 1.212699e+001 0.000000e+000 1.245706e+001
         vertex 7.959312e+000 1.774767e+001 2.181781e+001
         vertex 1.215142e+001 0.000000e+000 1.246644e+001
      endloop
   endfacet
   facet normal 2.960963e-001 5.004572e-001 -8.135538e-001
      outer loop
         vertex 1.215142e+001 0.000000e+000 1.246644e+001
         vertex 7.959312e+000 1.774767e+001 2.181781e+001
         vertex 8.985038e+000 1.774767e+001 2.221155e+001
      endloop
   endfacet
   facet normal 2.386480e-001 5.004572e-001 -8.322198e-001
      outer loop
         vertex 1.215142e+001 0.000000e+000 1.246644e+001
         vertex 8.985038e+000 1.774767e+001 2.221155e+001
         vertex 1.217669e+001 0.000000e+000 1.247321e+001
      endloop
   endfacet
   facet normal 2.094347e-001 5.004572e-001 -8.400475e-001
      outer loop
         vertex 1.217669e+001 0.000000e+000 1.247321e+001
         vertex 8.985038e+000 1.774767e+001 2.221155e+001
         vertex 1.004630e+001 1.774767e+001 2.249592e+001
      endloop
   endfacet
   facet normal 1.503500e-001 5.004571e-001 -8.526063e-001
      outer loop
         vertex 1.217669e+001 0.000000e+000 1.247321e+001
         vertex 1.004630e+001 1.774767e+001 2.249592e+001
         vertex 1.220254e+001 0.000000e+000 1.247730e+001
      endloop
   endfacet
   facet normal 1.204785e-001 5.004572e-001 -8.573375e-001
      outer loop
         vertex 1.220254e+001 0.000000e+000 1.247730e+001
         vertex 1.004630e+001 1.774767e+001 2.249592e+001
         vertex 1.113148e+001 1.774767e+001 2.266779e+001
      endloop
   endfacet
   facet normal 6.040471e-002 5.004572e-001 -8.636515e-001
      outer loop
         vertex 1.220254e+001 0.000000e+000 1.247730e+001
         vertex 1.113148e+001 1.774767e+001 2.266779e+001
         vertex 1.222867e+001 0.000000e+000 1.247867e+001
      endloop
   endfacet
   facet normal 3.020236e-002 5.004572e-001 -8.652344e-001
      outer loop
         vertex 1.222867e+001 0.000000e+000 1.247867e+001
         vertex 1.113148e+001 1.774767e+001 2.266779e+001
         vertex 1.222867e+001 1.774767e+001 2.272530e+001
      endloop
   endfacet
   facet normal 8.341944e-001 5.003750e-001 2.318289e-001
      outer loop
         vertex 3.069432e+000 1.624767e+001 9.252654e+000
         vertex 2.999053e+000 1.624767e+001 9.478672e+000
         vertex 1.198414e+001 0.000000e+000 1.217669e+001
      endloop
   endfacet
   facet normal 8.418401e-001 5.002677e-001 2.025770e-001
      outer loop
         vertex 1.198414e+001 0.000000e+000 1.217669e+001
         vertex 2.999053e+000 1.624767e+001 9.478672e+000
         vertex 1.961427e+000 1.774767e+001 1.004630e+001
      endloop
   endfacet
   facet normal 8.526063e-001 5.004571e-001 1.503500e-001
      outer loop
         vertex 1.198414e+001 0.000000e+000 1.217669e+001
         vertex 1.961427e+000 1.774767e+001 1.004630e+001
         vertex 1.198004e+001 0.000000e+000 1.220254e+001
      endloop
   endfacet
   facet normal 8.573375e-001 5.004572e-001 1.204785e-001
      outer loop
         vertex 1.198004e+001 0.000000e+000 1.220254e+001
         vertex 1.961427e+000 1.774767e+001 1.004630e+001
         vertex 1.789552e+000 1.774767e+001 1.113148e+001
      endloop
   endfacet
   facet normal 8.636515e-001 5.004572e-001 6.040471e-002
      outer loop
         vertex 1.198004e+001 0.000000e+000 1.220254e+001
         vertex 1.789552e+000 1.774767e+001 1.113148e+001
         vertex 1.197867e+001 0.000000e+000 1.222867e+001
      endloop
   endfacet
   facet normal 8.652344e-001 5.004572e-001 3.020236e-002
      outer loop
         vertex 1.197867e+001 0.000000e+000 1.222867e+001
         vertex 1.789552e+000 1.774767e+001 1.113148e+001
         vertex 1.732050e+000 1.774767e+001 1.222867e+001
      endloop
   endfacet
   facet normal 8.652344e-001 5.004572e-001 -3.020236e-002
      outer loop
         vertex 1.197867e+001 0.000000e+000 1.222867e+001
         vertex 1.732050e+000 1.774767e+001 1.222867e+001
         vertex 1.198004e+001 0.000000e+000 1.225480e+001
      endloop
   endfacet
   facet normal 8.636515e-001 5.004572e-001 -6.040471e-002
      outer loop
         vertex 1.198004e+001 0.000000e+000 1.225480e+001
         vertex 1.732050e+000 1.774767e+001 1.222867e+001
         vertex 1.789552e+000 1.774767e+001 1.332587e+001
      endloop
   endfacet
   facet normal 8.573375e-001 5.004572e-001 -1.204785e-001
      outer loop
         vertex 1.198004e+001 0.000000e+000 1.225480e+001
         vertex 1.789552e+000 1.774767e+001 1.332587e+001
         vertex 1.198414e+001 0.000000e+000 1.228065e+001
      endloop
   endfacet
   facet normal 8.526063e-001 5.004571e-001 -1.503500e-001
      outer loop
         vertex 1.198414e+001 0.000000e+000 1.228065e+001
         vertex 1.789552e+000 1.774767e+001 1.332587e+001
         vertex 1.961427e+000 1.774767e+001 1.441104e+001
      endloop
   endfacet
   facet normal 8.418401e-001 5.002677e-001 -2.025770e-001
      outer loop
         vertex 1.198414e+001 0.000000e+000 1.228065e+001
         vertex 1.961427e+000 1.774767e+001 1.441104e+001
         vertex 2.999053e+000 1.624767e+001 1.497867e+001
      endloop
   endfacet
   facet normal 8.379680e-001 5.002108e-001 -2.181713e-001
      outer loop
         vertex 2.999053e+000 1.624767e+001 1.497867e+001
         vertex 1.961427e+000 1.774767e+001 1.441104e+001
         vertex 2.098689e+000 1.774767e+001 1.497867e+001
      endloop
   endfacet
   facet normal 3.020236e-002 5.004572e-001 8.652344e-001
      outer loop
         vertex 1.222867e+001 0.000000e+000 1.197867e+001
         vertex 1.222867e+001 1.774767e+001 1.732050e+000
         vertex 1.220254e+001 0.000000e+000 1.198004e+001
      endloop
   endfacet
   facet normal 6.040471e-002 5.004572e-001 8.636515e-001
      outer loop
         vertex 1.220254e+001 0.000000e+000 1.198004e+001
         vertex 1.222867e+001 1.774767e+001 1.732050e+000
         vertex 1.113148e+001 1.774767e+001 1.789552e+000
      endloop
   endfacet
   facet normal 1.204785e-001 5.004572e-001 8.573375e-001
      outer loop
         vertex 1.220254e+001 0.000000e+000 1.198004e+001
         vertex 1.113148e+001 1.774767e+001 1.789552e+000
         vertex 1.217669e+001 0.000000e+000 1.198414e+001
      endloop
   endfacet
   facet normal 1.503500e-001 5.004571e-001 8.526063e-001
      outer loop
         vertex 1.217669e+001 0.000000e+000 1.198414e+001
         vertex 1.113148e+001 1.774767e+001 1.789552e+000
         vertex 1.004630e+001 1.774767e+001 1.961427e+000
      endloop
   endfacet
   facet normal 2.094347e-001 5.004572e-001 8.400475e-001
      outer loop
         vertex 1.217669e+001 0.000000e+000 1.198414e+001
         vertex 1.004630e+001 1.774767e+001 1.961427e+000
         vertex 1.215142e+001 0.000000e+000 1.199091e+001
      endloop
   endfacet
   facet normal 2.386480e-001 5.004572e-001 8.322198e-001
      outer loop
         vertex 1.215142e+001 0.000000e+000 1.199091e+001
         vertex 1.004630e+001 1.774767e+001 1.961427e+000
         vertex 8.985038e+000 1.774767e+001 2.245792e+000
      endloop
   endfacet
   facet normal 2.960963e-001 5.004572e-001 8.135538e-001
      outer loop
         vertex 1.215142e+001 0.000000e+000 1.199091e+001
         vertex 8.985038e+000 1.774767e+001 2.245792e+000
         vertex 1.212699e+001 0.000000e+000 1.200029e+001
      endloop
   endfacet
   facet normal 3.243313e-001 5.004571e-001 8.027153e-001
      outer loop
         vertex 1.212699e+001 0.000000e+000 1.200029e+001
         vertex 8.985038e+000 1.774767e+001 2.245792e+000
         vertex 7.959312e+000 1.774767e+001 2.639531e+000
      endloop
   endfacet
   facet normal 3.795137e-001 5.004572e-001 7.781465e-001
      outer loop
         vertex 1.212699e+001 0.000000e+000 1.200029e+001
         vertex 7.959312e+000 1.774767e+001 2.639531e+000
         vertex 1.210367e+001 0.000000e+000 1.201217e+001
      endloop
   endfacet
   facet normal 4.064612e-001 5.004572e-001 7.644161e-001
      outer loop
         vertex 1.210367e+001 0.000000e+000 1.201217e+001
         vertex 7.959312e+000 1.774767e+001 2.639531e+000
         vertex 6.980361e+000 1.774767e+001 3.138332e+000
      endloop
   endfacet
   facet normal 4.587732e-001 5.004572e-001 7.342138e-001
      outer loop
         vertex 1.210367e+001 0.000000e+000 1.201217e+001
         vertex 6.980361e+000 1.774767e+001 3.138332e+000
         vertex 1.208173e+001 0.000000e+000 1.202642e+001
      endloop
   endfacet
   facet normal 4.841377e-001 5.004572e-001 7.177417e-001
      outer loop
         vertex 1.208173e+001 0.000000e+000 1.202642e+001
         vertex 6.980361e+000 1.774767e+001 3.138332e+000
         vertex 6.058913e+000 1.774767e+001 3.736727e+000
      endloop
   endfacet
   facet normal 5.330062e-001 5.004572e-001 6.822368e-001
      outer loop
         vertex 1.208173e+001 0.000000e+000 1.202642e+001
         vertex 6.058913e+000 1.774767e+001 3.736727e+000
         vertex 1.206139e+001 0.000000e+000 1.204289e+001
      endloop
   endfacet
   facet normal 5.565101e-001 5.004572e-001 6.632038e-001
      outer loop
         vertex 1.206139e+001 0.000000e+000 1.204289e+001
         vertex 6.058913e+000 1.774767e+001 3.736727e+000
         vertex 5.205062e+000 1.774767e+001 4.428162e+000
      endloop
   endfacet
   facet normal 6.013995e-001 5.004572e-001 6.227851e-001
      outer loop
         vertex 1.206139e+001 0.000000e+000 1.204289e+001
         vertex 5.205062e+000 1.774767e+001 4.428162e+000
         vertex 1.204289e+001 0.000000e+000 1.206139e+001
      endloop
   endfacet
   facet normal 6.227851e-001 5.004572e-001 6.013995e-001
      outer loop
         vertex 1.204289e+001 0.000000e+000 1.206139e+001
         vertex 5.205062e+000 1.774767e+001 4.428162e+000
         vertex 4.428162e+000 1.774767e+001 5.205062e+000
      endloop
   endfacet
   facet normal 6.632038e-001 5.004572e-001 5.565101e-001
      outer loop
         vertex 1.204289e+001 0.000000e+000 1.206139e+001
         vertex 4.428162e+000 1.774767e+001 5.205062e+000
         vertex 1.202642e+001 0.000000e+000 1.208173e+001
      endloop
   endfacet
   facet normal 6.822368e-001 5.004572e-001 5.330062e-001
      outer loop
         vertex 1.202642e+001 0.000000e+000 1.208173e+001
         vertex 4.428162e+000 1.774767e+001 5.205062e+000
         vertex 3.736727e+000 1.774767e+001 6.058913e+000
      endloop
   endfacet
   facet normal 7.177417e-001 5.004572e-001 4.841378e-001
      outer loop
         vertex 1.202642e+001 0.000000e+000 1.208173e+001
         vertex 3.736727e+000 1.774767e+001 6.058913e+000
         vertex 1.201217e+001 0.000000e+000 1.210367e+001
      endloop
   endfacet
   facet normal 7.342138e-001 5.004572e-001 4.587732e-001
      outer loop
         vertex 1.201217e+001 0.000000e+000 1.210367e+001
         vertex 3.736727e+000 1.774767e+001 6.058913e+000
         vertex 3.138332e+000 1.774767e+001 6.980361e+000
      endloop
   endfacet
   facet normal 7.511237e-001 5.000026e-001 4.310576e-001
      outer loop
         vertex 1.201217e+001 0.000000e+000 1.210367e+001
         vertex 3.138332e+000 1.774767e+001 6.980361e+000
         vertex 3.850971e+000 1.624767e+001 7.478673e+000
      endloop
   endfacet
   facet normal 7.587077e-001 5.001065e-001 4.174399e-001
      outer loop
         vertex 3.850971e+000 1.624767e+001 7.478673e+000
         vertex 3.138332e+000 1.774767e+001 6.980361e+000
         vertex 2.868300e+000 1.774767e+001 7.478673e+000
      endloop
   endfacet
   facet normal 0.000000e+000 1.000000e+000 0.000000e+000
      outer loop
         vertex 9.602243e-001 1.774767e+001 7.478673e+000
         vertex 2.868300e+000 1.774767e+001 7.478673e+000
         vertex 1.443946e+000 1.774767e+001 6.464116e+000
      endloop
   endfacet
   facet normal 0.000000e+000 1.000000e+000 0.000000e+000
      outer loop
         vertex 1.443946e+000 1.774767e+001 6.464116e+000
         vertex 2.868300e+000 1.774767e+001 7.478673e+000
         vertex 3.138332e+000 1.774767e+001 6.980361e+000
      endloop
   endfacet
   facet normal 0.000000e+000 1.000000e+000 0.000000e+000
      outer loop
         vertex 1.443946e+000 1.774767e+001 6.464116e+000
         vertex 3.138332e+000 1.774767e+001 6.980361e+000
         vertex 2.060903e+000 1.774767e+001 5.434786e+000
      endloop
   endfacet
   facet normal 0.000000e+000 1.000000e+000 0.000000e+000
      outer loop
         vertex 2.060903e+000 1.774767e+001 5.434786e+000
         vertex 3.138332e+000 1.774767e+001 6.980361e+000
         vertex 3.736727e+000 1.774767e+001 6.058913e+000
      endloop
   endfacet
   facet normal 0.000000e+000 1.000000e+000 0.000000e+000
      outer loop
         vertex 2.060903e+000 1.774767e+001 5.434786e+000
         vertex 3.736727e+000 1.774767e+001 6.058913e+000
         vertex 2.775781e+000 1.774767e+001 4.470885e+000
      endloop
   endfacet
   facet normal 0.000000e+000 1.000000e+000 0.000000e+000
      outer loop
         vertex 2.775781e+000 1.774767e+001 4.470885e+000
         vertex 3.736727e+000 1.774767e+001 6.058913e+000
         vertex 4.428162e+000 1.774767e+001 5.205062e+000
      endloop
   endfacet
   facet normal 0.000000e+000 1.000000e+000 0.000000e+000
      outer loop
         vertex 2.775781e+000 1.774767e+001 4.470885e+000
         vertex 4.428162e+000 1.774767e+001 5.205062e+000
         vertex 3.581695e+000 1.774767e+001 3.581695e+000
      endloop
   endfacet
   facet normal 0.000000e+000 1.000000e+000 0.000000e+000
      outer loop
         vertex 3.581695e+000 1.774767e+001 3.581695e+000
         vertex 4.428162e+000 1.774767e+001 5.205062e+000
         vertex 5.205062e+000 1.774767e+001 4.428162e+000
      endloop
   endfacet
   facet normal 0.000000e+000 1.000000e+000 0.000000e+000
      outer loop
         vertex 1.222867e+001 1.774767e+001 1.732050e+000
         vertex 1.222867e+001 1.774767e+001 0.000000e+000
         vertex 1.113148e+001 1.774767e+001 1.789552e+000
      endloop
   endfacet
   facet normal 0.000000e+000 1.000000e+000 0.000000e+000
      outer loop
         vertex 1.113148e+001 1.774767e+001 1.789552e+000
         vertex 1.222867e+001 1.774767e+001 0.000000e+000
         vertex 1.103005e+001 1.774767e+001 5.888473e-002
      endloop
   endfacet
   facet normal 0.000000e+000 1.000000e+000 0.000000e+000
      outer loop
         vertex 1.113148e+001 1.774767e+001 1.789552e+000
         vertex 1.103005e+001 1.774767e+001 5.888473e-002
         vertex 1.004630e+001 1.774767e+001 1.961427e+000
      endloop
   endfacet
   facet normal 0.000000e+000 1.000000e+000 0.000000e+000
      outer loop
         vertex 1.004630e+001 1.774767e+001 1.961427e+000
         vertex 1.103005e+001 1.774767e+001 5.888473e-002
         vertex 9.842977e+000 1.774767e+001 2.349708e-001
      endloop
   endfacet
   facet normal 0.000000e+000 1.000000e+000 0.000000e+000
      outer loop
         vertex 1.004630e+001 1.774767e+001 1.961427e+000
         vertex 9.842977e+000 1.774767e+001 2.349708e-001
         vertex 8.985038e+000 1.774767e+001 2.245792e+000
      endloop
   endfacet
   facet normal 0.000000e+000 1.000000e+000 0.000000e+000
      outer loop
         vertex 8.985038e+000 1.774767e+001 2.245792e+000
         vertex 9.842977e+000 1.774767e+001 2.349708e-001
         vertex 8.678876e+000 1.774767e+001 5.265623e-001
      endloop
   endfacet
   facet normal 0.000000e+000 1.000000e+000 0.000000e+000
      outer loop
         vertex 8.985038e+000 1.774767e+001 2.245792e+000
         vertex 8.678876e+000 1.774767e+001 5.265623e-001
         vertex 7.959312e+000 1.774767e+001 2.639531e+000
      endloop
   endfacet
   facet normal 0.000000e+000 1.000000e+000 0.000000e+000
      outer loop
         vertex 7.959312e+000 1.774767e+001 2.639531e+000
         vertex 8.678876e+000 1.774767e+001 5.265623e-001
         vertex 7.548962e+000 1.774767e+001 9.308522e-001
      endloop
   endfacet
   facet normal 0.000000e+000 1.000000e+000 0.000000e+000
      outer loop
         vertex 7.959312e+000 1.774767e+001 2.639531e+000
         vertex 7.548962e+000 1.774767e+001 9.308522e-001
         vertex 6.980361e+000 1.774767e+001 3.138332e+000
      endloop
   endfacet
   facet normal 0.000000e+000 1.000000e+000 0.000000e+000
      outer loop
         vertex 6.980361e+000 1.774767e+001 3.138332e+000
         vertex 7.548962e+000 1.774767e+001 9.308522e-001
         vertex 6.464116e+000 1.774767e+001 1.443946e+000
      endloop
   endfacet
   facet normal 0.000000e+000 1.000000e+000 0.000000e+000
      outer loop
         vertex 6.980361e+000 1.774767e+001 3.138332e+000
         vertex 6.464116e+000 1.774767e+001 1.443946e+000
         vertex 6.058913e+000 1.774767e+001 3.736727e+000
      endloop
   endfacet
   facet normal 0.000000e+000 1.000000e+000 0.000000e+000
      outer loop
         vertex 6.058913e+000 1.774767e+001 3.736727e+000
         vertex 6.464116e+000 1.774767e+001 1.443946e+000
         vertex 5.434786e+000 1.774767e+001 2.060903e+000
      endloop
   endfacet
   facet normal 0.000000e+000 1.000000e+000 0.000000e+000
      outer loop
         vertex 6.058913e+000 1.774767e+001 3.736727e+000
         vertex 5.434786e+000 1.774767e+001 2.060903e+000
         vertex 5.205062e+000 1.774767e+001 4.428162e+000
      endloop
   endfacet
   facet normal 0.000000e+000 1.000000e+000 0.000000e+000
      outer loop
         vertex 5.205062e+000 1.774767e+001 4.428162e+000
         vertex 5.434786e+000 1.774767e+001 2.060903e+000
         vertex 4.470885e+000 1.774767e+001 2.775781e+000
      endloop
   endfacet
   facet normal 0.000000e+000 1.000000e+000 0.000000e+000
      outer loop
         vertex 5.205062e+000 1.774767e+001 4.428162e+000
         vertex 4.470885e+000 1.774767e+001 2.775781e+000
         vertex 3.581695e+000 1.774767e+001 3.581695e+000
      endloop
   endfacet
   facet normal 0.000000e+000 1.000000e+000 0.000000e+000
      outer loop
         vertex 2.868300e+000 1.774767e+001 1.697867e+001
         vertex 9.602243e-001 1.774767e+001 1.697867e+001
         vertex 3.138332e+000 1.774767e+001 1.747698e+001
      endloop
   endfacet
   facet normal 0.000000e+000 1.000000e+000 0.000000e+000
      outer loop
         vertex 3.138332e+000 1.774767e+001 1.747698e+001
         vertex 9.602243e-001 1.774767e+001 1.697867e+001
         vertex 1.443946e+000 1.774767e+001 1.799323e+001
      endloop
   endfacet
   facet normal 0.000000e+000 1.000000e+000 0.000000e+000
      outer loop
         vertex 3.138332e+000 1.774767e+001 1.747698e+001
         vertex 1.443946e+000 1.774767e+001 1.799323e+001
         vertex 3.736727e+000 1.774767e+001 1.839843e+001
      endloop
   endfacet
   facet normal 0.000000e+000 1.000000e+000 0.000000e+000
      outer loop
         vertex 3.736727e+000 1.774767e+001 1.839843e+001
         vertex 1.443946e+000 1.774767e+001 1.799323e+001
         vertex 2.060903e+000 1.774767e+001 1.902256e+001
      endloop
   endfacet
   facet normal 0.000000e+000 1.000000e+000 0.000000e+000
      outer loop
         vertex 3.736727e+000 1.774767e+001 1.839843e+001
         vertex 2.060903e+000 1.774767e+001 1.902256e+001
         vertex 4.428162e+000 1.774767e+001 1.925228e+001
      endloop
   endfacet
   facet normal 0.000000e+000 1.000000e+000 0.000000e+000
      outer loop
         vertex 1.222867e+001 1.774767e+001 2.445734e+001
         vertex 1.222867e+001 1.774767e+001 2.272530e+001
         vertex 1.103005e+001 1.774767e+001 2.439846e+001
      endloop
   endfacet
   facet normal 0.000000e+000 1.000000e+000 0.000000e+000
      outer loop
         vertex 1.103005e+001 1.774767e+001 2.439846e+001
         vertex 1.222867e+001 1.774767e+001 2.272530e+001
         vertex 1.113148e+001 1.774767e+001 2.266779e+001
      endloop
   endfacet
   facet normal 0.000000e+000 1.000000e+000 0.000000e+000
      outer loop
         vertex 1.103005e+001 1.774767e+001 2.439846e+001
         vertex 1.113148e+001 1.774767e+001 2.266779e+001
         vertex 9.842977e+000 1.774767e+001 2.422237e+001
      endloop
   endfacet
   facet normal 0.000000e+000 1.000000e+000 0.000000e+000
      outer loop
         vertex 9.842977e+000 1.774767e+001 2.422237e+001
         vertex 1.113148e+001 1.774767e+001 2.266779e+001
         vertex 1.004630e+001 1.774767e+001 2.249592e+001
      endloop
   endfacet
   facet normal 0.000000e+000 1.000000e+000 0.000000e+000
      outer loop
         vertex 9.842977e+000 1.774767e+001 2.422237e+001
         vertex 1.004630e+001 1.774767e+001 2.249592e+001
         vertex 8.678876e+000 1.774767e+001 2.393078e+001
      endloop
   endfacet
   facet normal 0.000000e+000 1.000000e+000 0.000000e+000
      outer loop
         vertex 8.678876e+000 1.774767e+001 2.393078e+001
         vertex 1.004630e+001 1.774767e+001 2.249592e+001
         vertex 8.985038e+000 1.774767e+001 2.221155e+001
      endloop
   endfacet
   facet normal 0.000000e+000 1.000000e+000 0.000000e+000
      outer loop
         vertex 8.678876e+000 1.774767e+001 2.393078e+001
         vertex 8.985038e+000 1.774767e+001 2.221155e+001
         vertex 7.548962e+000 1.774767e+001 2.352649e+001
      endloop
   endfacet
   facet normal 0.000000e+000 1.000000e+000 0.000000e+000
      outer loop
         vertex 7.548962e+000 1.774767e+001 2.352649e+001
         vertex 8.985038e+000 1.774767e+001 2.221155e+001
         vertex 7.959312e+000 1.774767e+001 2.181781e+001
      endloop
   endfacet
   facet normal 0.000000e+000 1.000000e+000 0.000000e+000
      outer loop
         vertex 7.548962e+000 1.774767e+001 2.352649e+001
         vertex 7.959312e+000 1.774767e+001 2.181781e+001
         vertex 6.464116e+000 1.774767e+001 2.301340e+001
      endloop
   endfacet
   facet normal 0.000000e+000 1.000000e+000 0.000000e+000
      outer loop
         vertex 6.464116e+000 1.774767e+001 2.301340e+001
         vertex 7.959312e+000 1.774767e+001 2.181781e+001
         vertex 6.980361e+000 1.774767e+001 2.131901e+001
      endloop
   endfacet
   facet normal 0.000000e+000 1.000000e+000 0.000000e+000
      outer loop
         vertex 6.464116e+000 1.774767e+001 2.301340e+001
         vertex 6.980361e+000 1.774767e+001 2.131901e+001
         vertex 5.434786e+000 1.774767e+001 2.239644e+001
      endloop
   endfacet
   facet normal 0.000000e+000 1.000000e+000 0.000000e+000
      outer loop
         vertex 5.434786e+000 1.774767e+001 2.239644e+001
         vertex 6.980361e+000 1.774767e+001 2.131901e+001
         vertex 6.058913e+000 1.774767e+001 2.072062e+001
      endloop
   endfacet
   facet normal 0.000000e+000 1.000000e+000 0.000000e+000
      outer loop
         vertex 5.434786e+000 1.774767e+001 2.239644e+001
         vertex 6.058913e+000 1.774767e+001 2.072062e+001
         vertex 4.470885e+000 1.774767e+001 2.168156e+001
      endloop
   endfacet
   facet normal 0.000000e+000 1.000000e+000 0.000000e+000
      outer loop
         vertex 4.470885e+000 1.774767e+001 2.168156e+001
         vertex 6.058913e+000 1.774767e+001 2.072062e+001
         vertex 5.205062e+000 1.774767e+001 2.002918e+001
      endloop
   endfacet
   facet normal 0.000000e+000 1.000000e+000 0.000000e+000
      outer loop
         vertex 4.470885e+000 1.774767e+001 2.168156e+001
         vertex 5.205062e+000 1.774767e+001 2.002918e+001
         vertex 3.581695e+000 1.774767e+001 2.087565e+001
      endloop
   endfacet
   facet normal 0.000000e+000 1.000000e+000 0.000000e+000
      outer loop
         vertex 3.581695e+000 1.774767e+001 2.087565e+001
         vertex 5.205062e+000 1.774767e+001 2.002918e+001
         vertex 4.428162e+000 1.774767e+001 1.925228e+001
      endloop
   endfacet
   facet normal 0.000000e+000 1.000000e+000 0.000000e+000
      outer loop
         vertex 3.581695e+000 1.774767e+001 2.087565e+001
         vertex 4.428162e+000 1.774767e+001 1.925228e+001
         vertex 2.775781e+000 1.774767e+001 1.998646e+001
      endloop
   endfacet
   facet normal 0.000000e+000 1.000000e+000 0.000000e+000
      outer loop
         vertex 2.775781e+000 1.774767e+001 1.998646e+001
         vertex 4.428162e+000 1.774767e+001 1.925228e+001
         vertex 2.060903e+000 1.774767e+001 1.902256e+001
      endloop
   endfacet
   facet normal 0.000000e+000 -1.000000e+000 0.000000e+000
      outer loop
         vertex 1.222867e+001 0.000000e+000 1.247867e+001
         vertex 1.222867e+001 0.000000e+000 1.421072e+001
         vertex 1.220254e+001 0.000000e+000 1.247730e+001
      endloop
   endfacet
   facet normal 0.000000e+000 -1.000000e+000 0.000000e+000
      outer loop
         vertex 1.220254e+001 0.000000e+000 1.247730e+001
         vertex 1.222867e+001 0.000000e+000 1.421072e+001
         vertex 1.203440e+001 0.000000e+000 1.420118e+001
      endloop
   endfacet
   facet normal 0.000000e+000 -1.000000e+000 0.000000e+000
      outer loop
         vertex 1.220254e+001 0.000000e+000 1.247730e+001
         vertex 1.203440e+001 0.000000e+000 1.420118e+001
         vertex 1.217669e+001 0.000000e+000 1.247321e+001
      endloop
   endfacet
   facet normal 0.000000e+000 -1.000000e+000 0.000000e+000
      outer loop
         vertex 1.217669e+001 0.000000e+000 1.247321e+001
         vertex 1.203440e+001 0.000000e+000 1.420118e+001
         vertex 1.184199e+001 0.000000e+000 1.417264e+001
      endloop
   endfacet
   facet normal 0.000000e+000 -1.000000e+000 0.000000e+000
      outer loop
         vertex 1.217669e+001 0.000000e+000 1.247321e+001
         vertex 1.184199e+001 0.000000e+000 1.417264e+001
         vertex 1.215142e+001 0.000000e+000 1.246644e+001
      endloop
   endfacet
   facet normal 0.000000e+000 -1.000000e+000 0.000000e+000
      outer loop
         vertex 1.215142e+001 0.000000e+000 1.246644e+001
         vertex 1.184199e+001 0.000000e+000 1.417264e+001
         vertex 1.165331e+001 0.000000e+000 1.412538e+001
      endloop
   endfacet
   facet normal 0.000000e+000 -1.000000e+000 0.000000e+000
      outer loop
         vertex 1.215142e+001 0.000000e+000 1.246644e+001
         vertex 1.165331e+001 0.000000e+000 1.412538e+001
         vertex 1.212699e+001 0.000000e+000 1.245706e+001
      endloop
   endfacet
   facet normal 0.000000e+000 -1.000000e+000 0.000000e+000
      outer loop
         vertex 1.212699e+001 0.000000e+000 1.245706e+001
         vertex 1.165331e+001 0.000000e+000 1.412538e+001
         vertex 1.147017e+001 0.000000e+000 1.405985e+001
      endloop
   endfacet
   facet normal 0.000000e+000 -1.000000e+000 0.000000e+000
      outer loop
         vertex 1.212699e+001 0.000000e+000 1.245706e+001
         vertex 1.147017e+001 0.000000e+000 1.405985e+001
         vertex 1.210367e+001 0.000000e+000 1.244518e+001
      endloop
   endfacet
   facet normal 0.000000e+000 -1.000000e+000 0.000000e+000
      outer loop
         vertex 1.210367e+001 0.000000e+000 1.244518e+001
         vertex 1.147017e+001 0.000000e+000 1.405985e+001
         vertex 1.129434e+001 0.000000e+000 1.397668e+001
      endloop
   endfacet
   facet normal 0.000000e+000 -1.000000e+000 0.000000e+000
      outer loop
         vertex 1.210367e+001 0.000000e+000 1.244518e+001
         vertex 1.129434e+001 0.000000e+000 1.397668e+001
         vertex 1.208173e+001 0.000000e+000 1.243093e+001
      endloop
   endfacet
   facet normal 0.000000e+000 -1.000000e+000 0.000000e+000
      outer loop
         vertex 1.208173e+001 0.000000e+000 1.243093e+001
         vertex 1.129434e+001 0.000000e+000 1.397668e+001
         vertex 1.112750e+001 0.000000e+000 1.387669e+001
      endloop
   endfacet
   facet normal 0.000000e+000 -1.000000e+000 0.000000e+000
      outer loop
         vertex 1.208173e+001 0.000000e+000 1.243093e+001
         vertex 1.112750e+001 0.000000e+000 1.387669e+001
         vertex 1.206139e+001 0.000000e+000 1.241446e+001
      endloop
   endfacet
   facet normal 0.000000e+000 -1.000000e+000 0.000000e+000
      outer loop
         vertex 1.204289e+001 0.000000e+000 1.206139e+001
         vertex 1.082715e+001 0.000000e+000 1.082715e+001
         vertex 1.206139e+001 0.000000e+000 1.204289e+001
      endloop
   endfacet
   facet normal 0.000000e+000 -1.000000e+000 0.000000e+000
      outer loop
         vertex 1.206139e+001 0.000000e+000 1.204289e+001
         vertex 1.082715e+001 0.000000e+000 1.082715e+001
         vertex 1.097127e+001 0.000000e+000 1.069653e+001
      endloop
   endfacet
   facet normal 0.000000e+000 -1.000000e+000 0.000000e+000
      outer loop
         vertex 1.206139e+001 0.000000e+000 1.204289e+001
         vertex 1.097127e+001 0.000000e+000 1.069653e+001
         vertex 1.208173e+001 0.000000e+000 1.202642e+001
      endloop
   endfacet
   facet normal 0.000000e+000 -1.000000e+000 0.000000e+000
      outer loop
         vertex 1.208173e+001 0.000000e+000 1.202642e+001
         vertex 1.097127e+001 0.000000e+000 1.069653e+001
         vertex 1.112750e+001 0.000000e+000 1.058066e+001
      endloop
   endfacet
   facet normal 0.000000e+000 -1.000000e+000 0.000000e+000
      outer loop
         vertex 1.208173e+001 0.000000e+000 1.202642e+001
         vertex 1.112750e+001 0.000000e+000 1.058066e+001
         vertex 1.210367e+001 0.000000e+000 1.201217e+001
      endloop
   endfacet
   facet normal 0.000000e+000 -1.000000e+000 0.000000e+000
      outer loop
         vertex 1.210367e+001 0.000000e+000 1.201217e+001
         vertex 1.112750e+001 0.000000e+000 1.058066e+001
         vertex 1.129434e+001 0.000000e+000 1.048066e+001
      endloop
   endfacet
   facet normal 0.000000e+000 -1.000000e+000 0.000000e+000
      outer loop
         vertex 1.210367e+001 0.000000e+000 1.201217e+001
         vertex 1.129434e+001 0.000000e+000 1.048066e+001
         vertex 1.212699e+001 0.000000e+000 1.200029e+001
      endloop
   endfacet
   facet normal 0.000000e+000 -1.000000e+000 0.000000e+000
      outer loop
         vertex 1.212699e+001 0.000000e+000 1.200029e+001
         vertex 1.129434e+001 0.000000e+000 1.048066e+001
         vertex 1.147017e+001 0.000000e+000 1.039750e+001
      endloop
   endfacet
   facet normal 0.000000e+000 -1.000000e+000 0.000000e+000
      outer loop
         vertex 1.212699e+001 0.000000e+000 1.200029e+001
         vertex 1.147017e+001 0.000000e+000 1.039750e+001
         vertex 1.215142e+001 0.000000e+000 1.199091e+001
      endloop
   endfacet
   facet normal 0.000000e+000 -1.000000e+000 0.000000e+000
      outer loop
         vertex 1.215142e+001 0.000000e+000 1.199091e+001
         vertex 1.147017e+001 0.000000e+000 1.039750e+001
         vertex 1.165331e+001 0.000000e+000 1.033197e+001
      endloop
   endfacet
   facet normal 0.000000e+000 -1.000000e+000 0.000000e+000
      outer loop
         vertex 1.215142e+001 0.000000e+000 1.199091e+001
         vertex 1.165331e+001 0.000000e+000 1.033197e+001
         vertex 1.217669e+001 0.000000e+000 1.198414e+001
      endloop
   endfacet
   facet normal 0.000000e+000 -1.000000e+000 0.000000e+000
      outer loop
         vertex 1.217669e+001 0.000000e+000 1.198414e+001
         vertex 1.165331e+001 0.000000e+000 1.033197e+001
         vertex 1.184199e+001 0.000000e+000 1.028471e+001
      endloop
   endfacet
   facet normal 0.000000e+000 -1.000000e+000 0.000000e+000
      outer loop
         vertex 1.217669e+001 0.000000e+000 1.198414e+001
         vertex 1.184199e+001 0.000000e+000 1.028471e+001
         vertex 1.220254e+001 0.000000e+000 1.198004e+001
      endloop
   endfacet
   facet normal 0.000000e+000 -1.000000e+000 0.000000e+000
      outer loop
         vertex 1.220254e+001 0.000000e+000 1.198004e+001
         vertex 1.184199e+001 0.000000e+000 1.028471e+001
         vertex 1.203440e+001 0.000000e+000 1.025617e+001
      endloop
   endfacet
   facet normal 0.000000e+000 -1.000000e+000 0.000000e+000
      outer loop
         vertex 1.220254e+001 0.000000e+000 1.198004e+001
         vertex 1.203440e+001 0.000000e+000 1.025617e+001
         vertex 1.222867e+001 0.000000e+000 1.197867e+001
      endloop
   endfacet
   facet normal 0.000000e+000 -1.000000e+000 0.000000e+000
      outer loop
         vertex 1.222867e+001 0.000000e+000 1.197867e+001
         vertex 1.203440e+001 0.000000e+000 1.025617e+001
         vertex 1.222867e+001 0.000000e+000 1.024662e+001
      endloop
   endfacet
   facet normal 0.000000e+000 -1.000000e+000 0.000000e+000
      outer loop
         vertex 1.112750e+001 0.000000e+000 1.387669e+001
         vertex 1.097127e+001 0.000000e+000 1.376082e+001
         vertex 1.206139e+001 0.000000e+000 1.241446e+001
      endloop
   endfacet
   facet normal 0.000000e+000 -1.000000e+000 0.000000e+000
      outer loop
         vertex 1.206139e+001 0.000000e+000 1.241446e+001
         vertex 1.097127e+001 0.000000e+000 1.376082e+001
         vertex 1.082715e+001 0.000000e+000 1.363019e+001
      endloop
   endfacet
   facet normal 0.000000e+000 -1.000000e+000 0.000000e+000
      outer loop
         vertex 1.206139e+001 0.000000e+000 1.241446e+001
         vertex 1.082715e+001 0.000000e+000 1.363019e+001
         vertex 1.204289e+001 0.000000e+000 1.239596e+001
      endloop
   endfacet
   facet normal 0.000000e+000 -1.000000e+000 0.000000e+000
      outer loop
         vertex 1.204289e+001 0.000000e+000 1.239596e+001
         vertex 1.082715e+001 0.000000e+000 1.363019e+001
         vertex 1.069653e+001 0.000000e+000 1.348607e+001
      endloop
   endfacet
   facet normal 0.000000e+000 -1.000000e+000 0.000000e+000
      outer loop
         vertex 1.204289e+001 0.000000e+000 1.239596e+001
         vertex 1.069653e+001 0.000000e+000 1.348607e+001
         vertex 1.202642e+001 0.000000e+000 1.237562e+001
      endloop
   endfacet
   facet normal 0.000000e+000 -1.000000e+000 0.000000e+000
      outer loop
         vertex 1.202642e+001 0.000000e+000 1.237562e+001
         vertex 1.069653e+001 0.000000e+000 1.348607e+001
         vertex 1.058066e+001 0.000000e+000 1.332984e+001
      endloop
   endfacet
   facet normal 0.000000e+000 -1.000000e+000 0.000000e+000
      outer loop
         vertex 1.202642e+001 0.000000e+000 1.237562e+001
         vertex 1.058066e+001 0.000000e+000 1.332984e+001
         vertex 1.201217e+001 0.000000e+000 1.235367e+001
      endloop
   endfacet
   facet normal 0.000000e+000 -1.000000e+000 0.000000e+000
      outer loop
         vertex 1.201217e+001 0.000000e+000 1.235367e+001
         vertex 1.058066e+001 0.000000e+000 1.332984e+001
         vertex 1.048066e+001 0.000000e+000 1.316300e+001
      endloop
   endfacet
   facet normal 0.000000e+000 -1.000000e+000 0.000000e+000
      outer loop
         vertex 1.201217e+001 0.000000e+000 1.235367e+001
         vertex 1.048066e+001 0.000000e+000 1.316300e+001
         vertex 1.200029e+001 0.000000e+000 1.233036e+001
      endloop
   endfacet
   facet normal 0.000000e+000 -1.000000e+000 0.000000e+000
      outer loop
         vertex 1.200029e+001 0.000000e+000 1.233036e+001
         vertex 1.048066e+001 0.000000e+000 1.316300e+001
         vertex 1.039750e+001 0.000000e+000 1.298717e+001
      endloop
   endfacet
   facet normal 0.000000e+000 -1.000000e+000 0.000000e+000
      outer loop
         vertex 1.200029e+001 0.000000e+000 1.233036e+001
         vertex 1.039750e+001 0.000000e+000 1.298717e+001
         vertex 1.199091e+001 0.000000e+000 1.230593e+001
      endloop
   endfacet
   facet normal 0.000000e+000 -1.000000e+000 0.000000e+000
      outer loop
         vertex 1.199091e+001 0.000000e+000 1.230593e+001
         vertex 1.039750e+001 0.000000e+000 1.298717e+001
         vertex 1.033197e+001 0.000000e+000 1.280403e+001
      endloop
   endfacet
   facet normal 0.000000e+000 -1.000000e+000 0.000000e+000
      outer loop
         vertex 1.199091e+001 0.000000e+000 1.230593e+001
         vertex 1.033197e+001 0.000000e+000 1.280403e+001
         vertex 1.198414e+001 0.000000e+000 1.228065e+001
      endloop
   endfacet
   facet normal 0.000000e+000 -1.000000e+000 0.000000e+000
      outer loop
         vertex 1.198414e+001 0.000000e+000 1.228065e+001
         vertex 1.033197e+001 0.000000e+000 1.280403e+001
         vertex 1.028471e+001 0.000000e+000 1.261535e+001
      endloop
   endfacet
   facet normal 0.000000e+000 -1.000000e+000 0.000000e+000
      outer loop
         vertex 1.198414e+001 0.000000e+000 1.228065e+001
         vertex 1.028471e+001 0.000000e+000 1.261535e+001
         vertex 1.198004e+001 0.000000e+000 1.225480e+001
      endloop
   endfacet
   facet normal 0.000000e+000 -1.000000e+000 0.000000e+000
      outer loop
         vertex 1.198004e+001 0.000000e+000 1.225480e+001
         vertex 1.028471e+001 0.000000e+000 1.261535e+001
         vertex 1.025617e+001 0.000000e+000 1.242295e+001
      endloop
   endfacet
   facet normal 0.000000e+000 -1.000000e+000 0.000000e+000
      outer loop
         vertex 1.198004e+001 0.000000e+000 1.225480e+001
         vertex 1.025617e+001 0.000000e+000 1.242295e+001
         vertex 1.197867e+001 0.000000e+000 1.222867e+001
      endloop
   endfacet
   facet normal 0.000000e+000 -1.000000e+000 0.000000e+000
      outer loop
         vertex 1.197867e+001 0.000000e+000 1.222867e+001
         vertex 1.025617e+001 0.000000e+000 1.242295e+001
         vertex 1.024662e+001 0.000000e+000 1.222867e+001
      endloop
   endfacet
   facet normal 0.000000e+000 -1.000000e+000 0.000000e+000
      outer loop
         vertex 1.197867e+001 0.000000e+000 1.222867e+001
         vertex 1.024662e+001 0.000000e+000 1.222867e+001
         vertex 1.198004e+001 0.000000e+000 1.220254e+001
      endloop
   endfacet
   facet normal 0.000000e+000 -1.000000e+000 0.000000e+000
      outer loop
         vertex 1.198004e+001 0.000000e+000 1.220254e+001
         vertex 1.024662e+001 0.000000e+000 1.222867e+001
         vertex 1.025617e+001 0.000000e+000 1.203440e+001
      endloop
   endfacet
   facet normal 0.000000e+000 -1.000000e+000 0.000000e+000
      outer loop
         vertex 1.198004e+001 0.000000e+000 1.220254e+001
         vertex 1.025617e+001 0.000000e+000 1.203440e+001
         vertex 1.198414e+001 0.000000e+000 1.217669e+001
      endloop
   endfacet
   facet normal 0.000000e+000 -1.000000e+000 0.000000e+000
      outer loop
         vertex 1.198414e+001 0.000000e+000 1.217669e+001
         vertex 1.025617e+001 0.000000e+000 1.203440e+001
         vertex 1.028471e+001 0.000000e+000 1.184199e+001
      endloop
   endfacet
   facet normal 0.000000e+000 -1.000000e+000 0.000000e+000
      outer loop
         vertex 1.198414e+001 0.000000e+000 1.217669e+001
         vertex 1.028471e+001 0.000000e+000 1.184199e+001
         vertex 1.199091e+001 0.000000e+000 1.215142e+001
      endloop
   endfacet
   facet normal 0.000000e+000 -1.000000e+000 0.000000e+000
      outer loop
         vertex 1.199091e+001 0.000000e+000 1.215142e+001
         vertex 1.028471e+001 0.000000e+000 1.184199e+001
         vertex 1.033197e+001 0.000000e+000 1.165331e+001
      endloop
   endfacet
   facet normal 0.000000e+000 -1.000000e+000 0.000000e+000
      outer loop
         vertex 1.199091e+001 0.000000e+000 1.215142e+001
         vertex 1.033197e+001 0.000000e+000 1.165331e+001
         vertex 1.200029e+001 0.000000e+000 1.212699e+001
      endloop
   endfacet
   facet normal 0.000000e+000 -1.000000e+000 0.000000e+000
      outer loop
         vertex 1.200029e+001 0.000000e+000 1.212699e+001
         vertex 1.033197e+001 0.000000e+000 1.165331e+001
         vertex 1.039750e+001 0.000000e+000 1.147017e+001
      endloop
   endfacet
   facet normal 0.000000e+000 -1.000000e+000 0.000000e+000
      outer loop
         vertex 1.200029e+001 0.000000e+000 1.212699e+001
         vertex 1.039750e+001 0.000000e+000 1.147017e+001
         vertex 1.201217e+001 0.000000e+000 1.210367e+001
      endloop
   endfacet
   facet normal 0.000000e+000 -1.000000e+000 0.000000e+000
      outer loop
         vertex 1.201217e+001 0.000000e+000 1.210367e+001
         vertex 1.039750e+001 0.000000e+000 1.147017e+001
         vertex 1.048066e+001 0.000000e+000 1.129434e+001
      endloop
   endfacet
   facet normal 0.000000e+000 -1.000000e+000 0.000000e+000
      outer loop
         vertex 1.201217e+001 0.000000e+000 1.210367e+001
         vertex 1.048066e+001 0.000000e+000 1.129434e+001
         vertex 1.202642e+001 0.000000e+000 1.208173e+001
      endloop
   endfacet
   facet normal 0.000000e+000 -1.000000e+000 0.000000e+000
      outer loop
         vertex 1.202642e+001 0.000000e+000 1.208173e+001
         vertex 1.048066e+001 0.000000e+000 1.129434e+001
         vertex 1.058066e+001 0.000000e+000 1.112750e+001
      endloop
   endfacet
   facet normal 0.000000e+000 -1.000000e+000 0.000000e+000
      outer loop
         vertex 1.202642e+001 0.000000e+000 1.208173e+001
         vertex 1.058066e+001 0.000000e+000 1.112750e+001
         vertex 1.204289e+001 0.000000e+000 1.206139e+001
      endloop
   endfacet
   facet normal 0.000000e+000 -1.000000e+000 0.000000e+000
      outer loop
         vertex 1.204289e+001 0.000000e+000 1.206139e+001
         vertex 1.058066e+001 0.000000e+000 1.112750e+001
         vertex 1.069653e+001 0.000000e+000 1.097127e+001
      endloop
   endfacet
   facet normal 0.000000e+000 -1.000000e+000 0.000000e+000
      outer loop
         vertex 1.204289e+001 0.000000e+000 1.206139e+001
         vertex 1.069653e+001 0.000000e+000 1.097127e+001
         vertex 1.082715e+001 0.000000e+000 1.082715e+001
      endloop
   endfacet
   facet normal 0.000000e+000 1.000000e+000 0.000000e+000
      outer loop
         vertex 2.098689e+000 1.774767e+001 9.478672e+000
         vertex 3.132233e-001 1.774767e+001 9.478672e+000
         vertex 1.961427e+000 1.774767e+001 1.004630e+001
      endloop
   endfacet
   facet normal 0.000000e+000 1.000000e+000 0.000000e+000
      outer loop
         vertex 1.961427e+000 1.774767e+001 1.004630e+001
         vertex 3.132233e-001 1.774767e+001 9.478672e+000
         vertex 2.349708e-001 1.774767e+001 9.842977e+000
      endloop
   endfacet
   facet normal 0.000000e+000 1.000000e+000 0.000000e+000
      outer loop
         vertex 1.961427e+000 1.774767e+001 1.004630e+001
         vertex 2.349708e-001 1.774767e+001 9.842977e+000
         vertex 1.789552e+000 1.774767e+001 1.113148e+001
      endloop
   endfacet
   facet normal 0.000000e+000 1.000000e+000 0.000000e+000
      outer loop
         vertex 1.789552e+000 1.774767e+001 1.113148e+001
         vertex 2.349708e-001 1.774767e+001 9.842977e+000
         vertex 5.888473e-002 1.774767e+001 1.103005e+001
      endloop
   endfacet
   facet normal 0.000000e+000 1.000000e+000 0.000000e+000
      outer loop
         vertex 1.789552e+000 1.774767e+001 1.113148e+001
         vertex 5.888473e-002 1.774767e+001 1.103005e+001
         vertex 1.732050e+000 1.774767e+001 1.222867e+001
      endloop
   endfacet
   facet normal 0.000000e+000 1.000000e+000 0.000000e+000
      outer loop
         vertex 1.732050e+000 1.774767e+001 1.222867e+001
         vertex 5.888473e-002 1.774767e+001 1.103005e+001
         vertex 0.000000e+000 1.774767e+001 1.222867e+001
      endloop
   endfacet
   facet normal 0.000000e+000 1.000000e+000 0.000000e+000
      outer loop
         vertex 1.732050e+000 1.774767e+001 1.222867e+001
         vertex 0.000000e+000 1.774767e+001 1.222867e+001
         vertex 1.789552e+000 1.774767e+001 1.332587e+001
      endloop
   endfacet
   facet normal 0.000000e+000 1.000000e+000 0.000000e+000
      outer loop
         vertex 1.789552e+000 1.774767e+001 1.332587e+001
         vertex 0.000000e+000 1.774767e+001 1.222867e+001
         vertex 5.888473e-002 1.774767e+001 1.342729e+001
      endloop
   endfacet
   facet normal 0.000000e+000 1.000000e+000 0.000000e+000
      outer loop
         vertex 1.789552e+000 1.774767e+001 1.332587e+001
         vertex 5.888473e-002 1.774767e+001 1.342729e+001
         vertex 1.961427e+000 1.774767e+001 1.441104e+001
      endloop
   endfacet
   facet normal 0.000000e+000 1.000000e+000 0.000000e+000
      outer loop
         vertex 1.961427e+000 1.774767e+001 1.441104e+001
         vertex 5.888473e-002 1.774767e+001 1.342729e+001
         vertex 2.349708e-001 1.774767e+001 1.461437e+001
      endloop
   endfacet
   facet normal 0.000000e+000 1.000000e+000 0.000000e+000
      outer loop
         vertex 1.961427e+000 1.774767e+001 1.441104e+001
         vertex 2.349708e-001 1.774767e+001 1.461437e+001
         vertex 2.098689e+000 1.774767e+001 1.497867e+001
      endloop
   endfacet
   facet normal 0.000000e+000 1.000000e+000 0.000000e+000
      outer loop
         vertex 2.098689e+000 1.774767e+001 1.497867e+001
         vertex 2.349708e-001 1.774767e+001 1.461437e+001
         vertex 3.132233e-001 1.774767e+001 1.497867e+001
      endloop
   endfacet
   facet normal 1.000000e+000 0.000000e+000 3.047392e-015
      outer loop
         vertex 1.222867e+001 1.774767e+001 1.732050e+000
         vertex 1.222867e+001 0.000000e+000 1.197867e+001
         vertex 1.222867e+001 1.774767e+001 0.000000e+000
      endloop
   endfacet
   facet normal 1.000000e+000 0.000000e+000 3.047392e-015
      outer loop
         vertex 1.222867e+001 1.774767e+001 0.000000e+000
         vertex 1.222867e+001 0.000000e+000 1.197867e+001
         vertex 1.222867e+001 0.000000e+000 1.024662e+001
      endloop
   endfacet
   facet normal 1.000000e+000 0.000000e+000 -3.047392e-015
      outer loop
         vertex 1.222867e+001 0.000000e+000 1.247867e+001
         vertex 1.222867e+001 1.774767e+001 2.272530e+001
         vertex 1.222867e+001 0.000000e+000 1.421072e+001
      endloop
   endfacet
   facet normal 1.000000e+000 0.000000e+000 -3.047392e-015
      outer loop
         vertex 1.222867e+001 0.000000e+000 1.421072e+001
         vertex 1.222867e+001 1.774767e+001 2.272530e+001
         vertex 1.222867e+001 1.774767e+001 2.445734e+001
      endloop
   endfacet
   facet normal -7.228015e-017 1.000000e+000 0.000000e+000
      outer loop
         vertex 3.069432e+000 1.624767e+001 1.520469e+001
         vertex 2.999053e+000 1.624767e+001 1.497867e+001
         vertex 1.203826e+000 1.624767e+001 1.497867e+001
      endloop
   endfacet
   facet normal -7.228015e-017 1.000000e+000 0.000000e+000
      outer loop
         vertex 1.203826e+000 1.624767e+001 1.497867e+001
         vertex 1.355297e+000 1.624767e+001 1.552707e+001
         vertex 3.069432e+000 1.624767e+001 1.520469e+001
      endloop
   endfacet
   facet normal -7.228015e-017 1.000000e+000 0.000000e+000
      outer loop
         vertex 3.069432e+000 1.624767e+001 1.520469e+001
         vertex 1.355297e+000 1.624767e+001 1.552707e+001
         vertex 1.730955e+000 1.624767e+001 1.657697e+001
      endloop
   endfacet
   facet normal -7.228015e-017 1.000000e+000 0.000000e+000
      outer loop
         vertex 3.069432e+000 1.624767e+001 1.520469e+001
         vertex 1.730955e+000 1.624767e+001 1.657697e+001
         vertex 3.430685e+000 1.624767e+001 1.614579e+001
      endloop
   endfacet
   facet normal -7.228015e-017 1.000000e+000 0.000000e+000
      outer loop
         vertex 3.430685e+000 1.624767e+001 1.614579e+001
         vertex 1.730955e+000 1.624767e+001 1.657697e+001
         vertex 1.906499e+000 1.624767e+001 1.697867e+001
      endloop
   endfacet
   facet normal -7.228015e-017 1.000000e+000 0.000000e+000
      outer loop
         vertex 3.430685e+000 1.624767e+001 1.614579e+001
         vertex 1.906499e+000 1.624767e+001 1.697867e+001
         vertex 3.850971e+000 1.624767e+001 1.697867e+001
      endloop
   endfacet
   facet normal 0.000000e+000 0.000000e+000 -1.000000e+000
      outer loop
         vertex 3.850971e+000 1.624767e+001 1.697867e+001
         vertex 1.906499e+000 1.624767e+001 1.697867e+001
         vertex 2.868300e+000 1.774767e+001 1.697867e+001
      endloop
   endfacet
   facet normal 0.000000e+000 0.000000e+000 -1.000000e+000
      outer loop
         vertex 2.868300e+000 1.774767e+001 1.697867e+001
         vertex 1.906499e+000 1.624767e+001 1.697867e+001
         vertex 9.602243e-001 1.774767e+001 1.697867e+001
      endloop
   endfacet
   facet normal 0.000000e+000 0.000000e+000 1.000000e+000
      outer loop
         vertex 2.999053e+000 1.624767e+001 1.497867e+001
         vertex 2.098689e+000 1.774767e+001 1.497867e+001
         vertex 1.203826e+000 1.624767e+001 1.497867e+001
      endloop
   endfacet
   facet normal 0.000000e+000 0.000000e+000 1.000000e+000
      outer loop
         vertex 1.203826e+000 1.624767e+001 1.497867e+001
         vertex 2.098689e+000 1.774767e+001 1.497867e+001
         vertex 3.132233e-001 1.774767e+001 1.497867e+001
      endloop
   endfacet
   facet normal -7.228015e-017 1.000000e+000 0.000000e+000
      outer loop
         vertex 1.203826e+000 1.624767e+001 9.478672e+000
         vertex 2.999053e+000 1.624767e+001 9.478672e+000
         vertex 1.355297e+000 1.624767e+001 8.930269e+000
      endloop
   endfacet
   facet normal -7.228015e-017 1.000000e+000 0.000000e+000
      outer loop
         vertex 1.355297e+000 1.624767e+001 8.930269e+000
         vertex 2.999053e+000 1.624767e+001 9.478672e+000
         vertex 3.069432e+000 1.624767e+001 9.252654e+000
      endloop
   endfacet
   facet normal -7.228015e-017 1.000000e+000 0.000000e+000
      outer loop
         vertex 1.355297e+000 1.624767e+001 8.930269e+000
         vertex 3.069432e+000 1.624767e+001 9.252654e+000
         vertex 1.730955e+000 1.624767e+001 7.880376e+000
      endloop
   endfacet
   facet normal -7.228015e-017 1.000000e+000 0.000000e+000
      outer loop
         vertex 1.730955e+000 1.624767e+001 7.880376e+000
         vertex 3.069432e+000 1.624767e+001 9.252654e+000
         vertex 3.430685e+000 1.624767e+001 8.311557e+000
      endloop
   endfacet
   facet normal -7.228015e-017 1.000000e+000 0.000000e+000
      outer loop
         vertex 1.730955e+000 1.624767e+001 7.880376e+000
         vertex 3.430685e+000 1.624767e+001 8.311557e+000
         vertex 1.906499e+000 1.624767e+001 7.478673e+000
      endloop
   endfacet
   facet normal -7.228015e-017 1.000000e+000 0.000000e+000
      outer loop
         vertex 1.906499e+000 1.624767e+001 7.478673e+000
         vertex 3.430685e+000 1.624767e+001 8.311557e+000
         vertex 3.850971e+000 1.624767e+001 7.478673e+000
      endloop
   endfacet
   facet normal 0.000000e+000 0.000000e+000 1.000000e+000
      outer loop
         vertex 2.868300e+000 1.774767e+001 7.478673e+000
         vertex 9.602243e-001 1.774767e+001 7.478673e+000
         vertex 3.850971e+000 1.624767e+001 7.478673e+000
      endloop
   endfacet
   facet normal 0.000000e+000 0.000000e+000 1.000000e+000
      outer loop
         vertex 3.850971e+000 1.624767e+001 7.478673e+000
         vertex 9.602243e-001 1.774767e+001 7.478673e+000
         vertex 1.906499e+000 1.624767e+001 7.478673e+000
      endloop
   endfacet
   facet normal 0.000000e+000 0.000000e+000 -1.000000e+000
      outer loop
         vertex 2.098689e+000 1.774767e+001 9.478672e+000
         vertex 2.999053e+000 1.624767e+001 9.478672e+000
         vertex 3.132233e-001 1.774767e+001 9.478672e+000
      endloop
   endfacet
   facet normal 0.000000e+000 0.000000e+000 -1.000000e+000
      outer loop
         vertex 3.132233e-001 1.774767e+001 9.478672e+000
         vertex 2.999053e+000 1.624767e+001 9.478672e+000
         vertex 1.203826e+000 1.624767e+001 9.478672e+000
      endloop
   endfacet
endsolid